<svg width="32" height="32" viewBox="0 0 32 32" fill="none" xmlns="http://www.w3.org/2000/svg">
<path d="M29.9065 14.12L17.8932 2.10669C16.8932 1.10669 15.1332 1.09336 14.1198 2.10669L2.11984 14.1067C1.07984 15.1467 1.07984 16.8267 2.11984 17.8667L14.1198 29.8667C14.6398 30.3867 15.3198 30.64 15.9998 30.64C16.6798 30.64 17.3598 30.3867 17.8798 29.8667L29.8665 17.88C30.9198 16.8667 30.9332 15.1867 29.9065 14.12ZM16.0132 27.9867L4.01318 15.9867L16.0132 3.98669L28.0132 15.9867L16.0132 27.9867ZM10.6665 14.6667V20H13.3332V16H18.6665V19.3334L23.3332 14.6667L18.6665 10V13.3334H11.9998C11.2665 13.3334 10.6665 13.9334 10.6665 14.6667Z" fill="#6540F5"/>
</svg>
